<?xml version="1.0" encoding="utf-8"?>
<!-- Generator: Adobe Illustrator 16.0.4, SVG Export Plug-In . SVG Version: 6.00 Build 0)  -->
<!DOCTYPE svg PUBLIC "-//W3C//DTD SVG 1.1//EN" "http://www.w3.org/Graphics/SVG/1.1/DTD/svg11.dtd">
<svg version="1.1" id="Capa_1" xmlns="http://www.w3.org/2000/svg" xmlns:xlink="http://www.w3.org/1999/xlink" x="0px" y="0px"
	 width="512px" height="512px" viewBox="0 0 512 512" enable-background="new 0 0 512 512" xml:space="preserve">
<rect x="-1.316" y="-1.427" fill="#FFFFFF" width="513.316" height="513.316"/>
<g>
	<g>
		<path fill="#93C01F" d="M308.876,38.624c-17.91,0-34.297,7.271-46.077,19.324c4.438,3.986,9.517,8.472,14.117,12.375
			c8.304-8.124,19.611-13.003,31.96-13.003c25.247,0,45.786,20.538,45.786,45.787c0,12.402-4.65,23.61-13.443,32.409l-85.962,86.106
			l-71.101-71.218c-6.61,2.261-13.406,4.107-21.051,5.369l85.539,85.677c1.753,1.757,4.718,3.917,6.613,3.917
			c1.979,0,4.862-2.16,6.611-3.917l92.565-92.721c12.373-12.377,18.914-28.155,18.914-45.622
			C373.348,67.553,344.427,38.624,308.876,38.624z"/>
	</g>
	<g>
		<path fill="#0F4495" d="M400.948,142.109c-8.714-1.47-16.969-3.234-24.932-5.282c-4.69,7.83-7.297,11.229-11.859,16.169
			c6.491,1.869,13.141,3.541,20.021,4.984c-0.938,1.467-1.86,2.92-2.777,4.358c-30.994,48.666-51.769,81.294-20.954,143.678
			c-6.334,7.104-15.936,14.009-28.179,20.265c-17.589-6.928-33.45-10.433-47.194-10.433c-27.204,0-42.132,13.647-48.083,28.612
			c-46.144-4.181-74.707-27.606-85.11-37.804c20.995-34.139,26.363-66.041,15.951-94.899
			c-11.168-30.975-38.786-47.986-55.256-55.303c-0.264-2.689-0.638-8.25-1.082-11.346c8.863,1.586,17.682,2.391,26.344,2.391
			c0.004,0,0.009,0,0.009,0c39.438,0,77.665-16.903,111.507-49.06c-4.169-3.226-8.845-7.302-14.105-12.351
			c-30.138,28.345-62.827,42.714-97.402,42.723c-0.005,0-0.005,0-0.009,0c-11.559,0-23.482-1.649-35.433-4.904
			c-3.123-0.841-8.295-2.119-10.714,0.148c-2.342,2.191-1.537,7.527-0.9,10.703c1.859,9.306,3.354,23.875,3.495,28.272
			c0.201,6.426,0.732,6.881,6.657,8.953c6.964,2.443,38.054,14.904,49.312,46.107c8.922,24.741,2.853,53.133-17.932,84.454
			c-3.447,5.197-3.292,6.125,0.458,10.985c1.494,1.93,37.993,46.657,110.627,50.095c8.65,0.402,8.185-0.471,9.593-7.602
			c2.696-13.634,14.279-21.481,32.072-21.481c12.294,0,27.035,3.687,43.984,10.599c3.604,1.475,4.116,1.475,7.632-0.197
			c19.746-9.399,34.027-20.379,42.461-32.475c3.039-4.36,2.984-5.232,0.612-9.722c-29.824-56.324-13.977-81.105,17.406-130.374
			c3.26-5.123,6.652-10.481,10.179-16.104C411.199,150.121,411.818,143.939,400.948,142.109z"/>
	</g>
	<g>
		<path fill="#0F4496" d="M157.917,116.737c-1.352-4.361-2.067-8.938-2.067-13.629c0-25.25,20.538-45.787,45.78-45.787
			c10.434,0,20.119,3.448,27.897,9.46c15.927,12.902,22.764,20.716,35.144,31.237c19.534,16.613,39.926,30.069,60.184,39.943
			c3.556-3.749,8.304-8.93,13.211-14.432c-21.501-9.796-44.825-25.621-63.87-41.951c-10.466-8.983-23.469-20.893-27.461-24.574
			c-0.003-0.005-0.006-0.005-0.007-0.009c-11.702-11.474-27.672-18.371-45.098-18.371c-35.547,0-64.466,28.929-64.466,64.483
			c0,5.235,0.627,10.371,1.832,15.332C145.126,118.465,151.751,117.865,157.917,116.737z"/>
	</g>
</g>
<g>
	<path fill="#93C01F" d="M65.419,413.139h-8.638c-4.641-8.169-6.792-10.706-8.639-10.706h-3.096v10.706h-6.92v-29.964h16.721
		c6.146,0,8.208,3.826,8.208,8.77c0,4.298-1.804,8.037-7.478,8.341C57.599,401.014,59.834,403.725,65.419,413.139z M45.046,396.76
		h7.695c1.504,0,2.623-1.075,2.623-3.74c0-2.71-0.99-3.955-2.537-3.955h-7.781V396.76z"/>
	<path fill="#93C01F" d="M86.345,412.54c-2.19,0.729-5.456,1.199-7.95,1.199c-6.189,0-10.789-2.707-10.789-11.734
		c0-8.855,4.04-11.479,10.357-11.479c7.309,0,10.49,2.234,9.887,13.544H74.397c0.087,3.524,1.676,4.168,4.855,4.168
		c1.593,0,4.474-0.302,6.105-0.73L86.345,412.54z M74.054,388.72l5.285-5.545h6.75l-6.448,5.545H74.054z M74.44,399.213h7.65
		c-0.084-3.055-1.073-3.702-3.652-3.702C75.687,395.51,74.827,396.416,74.44,399.213z"/>
	<path fill="#93C01F" d="M100.355,413.611c-5.673,0-8.856-2.405-8.856-11.306c0-8.984,3.354-11.779,10.833-11.779
		c3.439,0,7.564,0.644,9.971,1.547v19.304c0,8.813-5.201,10.532-12.163,10.532c-2.839,0-6.018-0.561-8.039-1.289l1.161-5.16
		c2.277,0.603,4.47,0.989,6.747,0.989c3.569,0,5.675-0.902,5.675-4.082C104.395,413.01,102.505,413.611,100.355,413.611z
		 M105.685,396.373c-1.032-0.431-2.364-0.601-3.353-0.601c-3.138,0-4.168,0.773-4.168,6.404c0,4.642,0.902,5.889,3.995,5.889
		c1.936,0,3.526-0.6,3.526-1.547V396.373z"/>
	<path fill="#93C01F" d="M125.021,384.722c0,2.968-0.946,3.483-3.738,3.483c-2.836,0-3.74-0.516-3.74-3.483
		c0-2.706,0.903-3.138,3.74-3.138C124.075,381.585,125.021,382.016,125.021,384.722z M124.591,413.139h-6.618v-22.011h6.618V413.139
		z"/>
	<path fill="#93C01F" d="M129.317,402.005c0-8.984,3.655-11.479,10.658-11.479c7.137,0,10.748,2.494,10.748,11.479
		c0,9.027-3.568,11.734-10.748,11.734C132.885,413.739,129.317,411.032,129.317,402.005z M135.979,402.133
		c0,5.548,0.902,6.449,3.996,6.449c3.14,0,4.042-0.901,4.042-6.449c0-5.76-0.903-6.447-4.042-6.447
		C136.881,395.685,135.979,396.373,135.979,402.133z"/>
	<path fill="#93C01F" d="M162.149,413.139h-6.619v-20.635c2.839-1.031,7.222-1.979,11.176-1.979c6.062,0,9.071,2.536,9.071,10.447
		v12.166h-6.621v-11.651c0-3.995-0.645-5.072-3.869-5.072c-1.073,0-2.062,0.13-3.138,0.386V413.139z"/>
</g>
<g>
	<path fill="#0F4496" d="M47.391,472.405h-9.113v-39.406h9.113v14.359h14.83v-14.359h9.112v39.406h-9.112v-16.624h-14.83V472.405z"
		/>
	<path fill="#0F4496" d="M104.729,470.932c-3.904,1.412-9.507,2.264-13.753,2.264c-9.564,0-12.396-2.037-12.396-9.612
		c0-8.14,4.415-9.44,11.319-9.44c2.149,0,4.358,0.28,6.566,0.734c0-4.016-0.906-5.145-6.566-5.145c-3.34,0-6.563,0.62-8.999,1.356
		l-1.357-6.901c3.339-0.845,8.148-1.524,12.451-1.524c8.66,0,12.734,2.656,12.734,11.251V470.932z M91.656,466.749
		c1.639,0,3.452-0.283,4.81-0.789v-5.485c-1.301-0.34-2.942-0.397-4.697-0.397c-3.115,0-4.247,0.341-4.247,3.225
		C87.522,466.242,88.259,466.749,91.656,466.749z"/>
	<path fill="#0F4496" d="M129.634,443.457h8.604v27.194c-3.68,1.301-9.509,2.6-14.658,2.6c-8.037,0-11.888-3.393-11.888-13.738
		v-16.056h8.605v15.379c0,5.197,0.906,6.669,5.149,6.669c1.415,0,2.661-0.226,4.187-0.565V443.457z"/>
	<path fill="#0F4496" d="M155.842,450.92v10.798c0,2.941,0.849,4.125,3.905,4.125c1.811,0,3.284-0.338,4.642-0.789l1.415,6.672
		c-2.15,0.902-5.604,1.471-8.717,1.471c-6.395,0-9.959-1.921-9.959-10.572V450.92h-4.699v-7.463h4.699v-4.296l8.714-3.504v7.8h9.056
		v7.463H155.842z"/>
	<path fill="#0F4496" d="M189.293,450.691c-2.264-0.618-5.603-1.242-8.545-1.242c-2.719,0-4.074,0.226-4.074,2.488
		c0,1.526,0.792,1.922,5.262,2.486c6.733,0.852,9.733,2.884,9.733,8.817c0,7.861-5.657,9.955-12.958,9.955
		c-3.114,0-7.642-0.623-10.302-1.586l1.697-6.557c2.153,0.62,5.378,1.188,8.208,1.188c3.396,0,4.98-0.282,4.98-2.548
		c0-1.579-0.963-2.202-5.772-2.656c-6.056-0.563-9.281-2.315-9.281-8.48c0-7.854,5.601-9.894,12.847-9.894
		c3.114,0,7.187,0.623,9.906,1.588L189.293,450.691z"/>
	<path fill="#0F4496" d="M195.069,452.166h14.883v8.309h-14.883V452.166z"/>
	<path fill="#0F4496" d="M241.479,471.159c-3.171,1.186-8.603,2.037-13.132,2.037c-9.846,0-14.259-3.507-14.259-15.381
		c0-11.644,5.093-15.151,12.279-15.151c2.83,0,4.756,0.567,6.396,1.247v-12.325h8.715V471.159z M232.764,451.937
		c0-1.246-1.982-2.204-4.529-2.204c-4.074,0-5.376,1.81-5.376,7.969c0,7.013,1.359,8.2,5.488,8.2c1.473,0,3.342-0.229,4.417-0.68
		V451.937z"/>
	<path fill="#0F4496" d="M272.498,471.61c-2.887,0.963-7.188,1.586-10.469,1.586c-8.152,0-14.207-3.563-14.207-15.437
		c0-11.646,5.319-15.096,13.641-15.096c9.62,0,13.811,2.942,13.016,17.811h-17.715c0.114,4.636,2.207,5.485,6.397,5.485
		c2.095,0,5.885-0.399,8.036-0.966L272.498,471.61z M256.822,454.087h10.072c-0.111-4.014-1.412-4.865-4.811-4.865
		C258.462,449.221,257.33,450.411,256.822,454.087z"/>
	<path fill="#0F4496" d="M278.22,452.166h14.885v8.309H278.22V452.166z"/>
	<path fill="#0F4496" d="M328.027,432.999v7.972h-19.641v9.16h14.545v7.8h-14.545v14.475h-9.111v-39.406H328.027z"/>
	<path fill="#0F4496" d="M331.762,443.457h8.72v2.264c0.961-1.7,2.827-3.057,7.017-3.057c0.852,0,1.869,0.057,2.887,0.17v8.086
		c-1.135-0.34-2.661-0.452-4.072-0.452c-3.115,0-5.831,1.018-5.831,2.938v18.999h-8.72V443.457z"/>
	<path fill="#0F4496" d="M379.251,470.932c-3.907,1.412-9.509,2.264-13.753,2.264c-9.565,0-12.393-2.037-12.393-9.612
		c0-8.14,4.413-9.44,11.318-9.44c2.149,0,4.358,0.28,6.564,0.734c0-4.016-0.906-5.145-6.564-5.145c-3.339,0-6.565,0.62-9,1.356
		l-1.357-6.901c3.341-0.845,8.15-1.524,12.452-1.524c8.657,0,12.732,2.656,12.732,11.251V470.932z M366.179,466.749
		c1.64,0,3.452-0.283,4.81-0.789v-5.485c-1.301-0.34-2.943-0.397-4.695-0.397c-3.113,0-4.247,0.341-4.247,3.225
		C362.046,466.242,362.783,466.749,366.179,466.749z"/>
	<path fill="#0F4496" d="M395.158,472.405h-8.714v-27.141c3.732-1.354,9.506-2.601,14.714-2.601c7.979,0,11.94,3.338,11.94,13.738
		v16.003h-8.714v-15.323c0-5.259-0.85-6.671-5.094-6.671c-1.417,0-2.718,0.169-4.133,0.509V472.405z"/>
	<path fill="#0F4496" d="M442.645,471.725c-2.317,0.961-6.225,1.471-9.111,1.471c-8.657,0-14.433-3.563-14.433-15.437
		c0-11.758,5.83-15.096,14.433-15.096c2.998,0,6.848,0.456,9.111,1.247l-1.812,7.346c-1.638-0.62-4.185-1.184-6.565-1.184
		c-4.238,0-6.393,0.733-6.393,7.857c0,6.784,2.154,7.801,6.393,7.801c2.492,0,4.928-0.621,6.565-1.3L442.645,471.725z"/>
	<path fill="#0F4496" d="M470.493,471.61c-2.884,0.963-7.188,1.586-10.469,1.586c-8.151,0-14.204-3.563-14.204-15.437
		c0-11.646,5.318-15.096,13.639-15.096c9.62,0,13.807,2.942,13.016,17.811H454.76c0.114,4.636,2.209,5.485,6.394,5.485
		c2.098,0,5.891-0.399,8.04-0.966L470.493,471.61z M454.818,454.087h10.074c-0.114-4.014-1.417-4.865-4.81-4.865
		C456.458,449.221,455.326,450.411,454.818,454.087z"/>
</g>
</svg>
